HIERARCHY
ROOT Pelvis
{
	OFFSET 0.000000 0.000000 0.000000
	CHANNELS 6 Xposition Yposition Zposition Xrotation Yrotation Zrotation
	JOINT LeftUpLeg_virtual
	{
		OFFSET 0.000000 0.000000 0.000000
		CHANNELS 3 Xrotation Yrotation Zrotation
		JOINT LeftUpLeg
		{
			OFFSET 18.735201 -5.666702 -4.541200
			CHANNELS 3 Xrotation Yrotation Zrotation
			JOINT LeftLeg
			{
				OFFSET -0.021200 -31.938179 0.493100
				CHANNELS 3 Xrotation Yrotation Zrotation
				JOINT LeftFoot
				{
					OFFSET 0.021200 -31.938179 -4.336299
					CHANNELS 3 Xrotation Yrotation Zrotation
					JOINT LeftToeBase
					{
						OFFSET 0.943001 -26.722000 15.023500
						CHANNELS 3 Xrotation Yrotation Zrotation
						End Site
						{
							OFFSET 0 0 0
						}
					}
				}
			}
		}
	}
	JOINT RightUpLeg_virtual
	{
		OFFSET 0.000000 0.000000 0.000000
		CHANNELS 3 Xrotation Yrotation Zrotation
		JOINT RightUpLeg
		{
			OFFSET -18.735201 -5.666702 -4.541200
			CHANNELS 3 Xrotation Yrotation Zrotation
			JOINT RightLeg
			{
				OFFSET 0.018946 -31.938133 0.493100
				CHANNELS 3 Xrotation Yrotation Zrotation
				JOINT RightFoot
				{
					OFFSET -0.018946 -31.938126 -4.336299
					CHANNELS 3 Xrotation Yrotation Zrotation
					JOINT RightToeBase
					{
						OFFSET -0.943001 -26.722004 15.023500
						CHANNELS 3 Xrotation Yrotation Zrotation
						End Site
						{
							OFFSET 0 0 0
						}
					}
				}
			}
		}
	}
	JOINT Hips_virtual
	{
		OFFSET 0.000000 0.000000 0.000000
		CHANNELS 3 Xrotation Yrotation Zrotation
		JOINT Hips
		{
			OFFSET -0.000000 -0.000000 -0.000000
			CHANNELS 3 Xrotation Yrotation Zrotation
			JOINT Spine
			{
				OFFSET 0.000000 10.199997 -0.299500
				CHANNELS 3 Xrotation Yrotation Zrotation
				JOINT Spine1
				{
					OFFSET 0.000000 11.900002 -1.516600
					CHANNELS 3 Xrotation Yrotation Zrotation
					JOINT Spine2
					{
						OFFSET 0.000000 13.600006 -2.842500
						CHANNELS 3 Xrotation Yrotation Zrotation
						JOINT Neck_virtual
						{
							OFFSET 0.000000 0.000000 0.000000
							CHANNELS 3 Xrotation Yrotation Zrotation
							JOINT Neck
							{
								OFFSET 0.000000 9.624100 -2.890100
								CHANNELS 3 Xrotation Yrotation Zrotation
								JOINT Head
								{
									OFFSET 0.000000 14.068802 -1.351900
									CHANNELS 3 Xrotation Yrotation Zrotation
									End Site
									{
										OFFSET 0 0 0
									}
								}
							}
						}
						JOINT LeftShoulder_virtual
						{
							OFFSET 0.000000 0.000000 0.000000
							CHANNELS 3 Xrotation Yrotation Zrotation
							JOINT LeftShoulder
							{
								OFFSET 15.263000 10.923401 -0.547700
								CHANNELS 3 Xrotation Yrotation Zrotation
								JOINT LeftArm
								{
									OFFSET 25.438599 -2.830597 -13.032500
									CHANNELS 3 Xrotation Yrotation Zrotation
									JOINT LeftForeArm
									{
										OFFSET 29.960503 0.000000 0.000000
										CHANNELS 3 Xrotation Yrotation Zrotation
										JOINT LeftHand
										{
											OFFSET 27.849251 0.000000 0.000000
											CHANNELS 3 Xrotation Yrotation Zrotation
											End Site
											{
												OFFSET 0 0 0
											}
										}
									}
								}
							}
						}
						JOINT RightShoulder_virtual
						{
							OFFSET 0.000000 0.000000 0.000000
							CHANNELS 3 Xrotation Yrotation Zrotation
							JOINT RightShoulder
							{
								OFFSET -15.263000 10.923401 -0.547700
								CHANNELS 3 Xrotation Yrotation Zrotation
								JOINT RightArm
								{
									OFFSET -25.438599 -2.830597 -13.032500
									CHANNELS 3 Xrotation Yrotation Zrotation
									JOINT RightForeArm
									{
										OFFSET -29.960503 0.000000 0.000000
										CHANNELS 3 Xrotation Yrotation Zrotation
										JOINT RightHand
										{
											OFFSET -27.849251 0.000000 0.000000
											CHANNELS 3 Xrotation Yrotation Zrotation
											End Site
											{
												OFFSET 0 0 0
											}
										}
									}
								}
							}
						}
					}
				}
			}
		}
	}
}
MOTION
Frames: 6
Frame Time: 0.03333333
-5.924515 94.470947 10.133249 0.000000 0.000000 0.000000 -1.709469 -9.658155 -3.425097 -15.335687 5.990022 15.990820 21.945582 4.475129 -0.727063 0.354450 2.172497 -5.209536 0.000000 0.000000 0.000000 -2.397010 -8.819293 -3.128931 1.745815 -9.148104 5.613158 5.727549 -9.911680 -6.966898 3.680232 -2.961468 1.464986 0.000000 0.000000 0.000000 -1.944878 -8.839154 -3.123033 -0.805696 0.101245 -0.030403 4.211627 1.626114 4.826568 0.144317 -0.204248 3.042078 0.000000 0.000000 0.000000 -1.234955 0.680774 2.045350 3.667956 0.502001 0.803581 0.000000 0.000000 0.000000 -1.655281 0.697134 2.202431 -0.919416 -23.261893 -13.463508 12.029971 -10.324500 -68.873531 -8.283499 -11.927819 -7.284165 0.000000 0.000000 0.000000 -1.188885 0.857406 2.112471 7.067503 19.468143 11.384814 15.491692 22.360212 51.756284 -4.483540 25.356124 12.055841 0.000000 0.000000 0.000000 
-5.902599 94.477257 10.126081 0.000000 0.000000 0.000000 -1.714605 -9.749028 -3.407940 -15.314901 6.053828 15.972715 21.983818 4.501438 -0.720434 0.413831 2.245005 -5.129533 0.000000 0.000000 0.000000 -2.413265 -8.916020 -3.107806 1.757371 -9.087286 5.540340 5.704593 -9.883126 -6.985041 3.555361 -3.001527 1.341768 0.000000 0.000000 0.000000 -1.956606 -8.983498 -3.114591 -0.808556 0.096453 -0.031982 4.225918 1.600517 4.791236 0.167125 -0.207522 3.044980 0.000000 0.000000 0.000000 -1.238947 0.678769 2.056608 3.676693 0.503779 0.795987 0.000000 0.000000 0.000000 -1.678283 0.692204 2.198172 -0.921194 -23.280444 -13.480837 12.055185 -10.306132 -68.844079 -8.313282 -11.985496 -7.320041 0.000000 0.000000 0.000000 -1.191989 0.853132 2.115005 7.032648 19.449654 11.416424 15.521786 22.289194 51.683850 -4.528102 25.347457 12.177955 0.000000 0.000000 0.000000 
-5.880805 94.494995 10.108528 0.000000 0.000000 0.000000 -1.751263 -9.937422 -3.411208 -15.273621 6.179298 15.986073 22.072463 4.535918 -0.717039 0.481499 2.345539 -4.999809 0.000000 0.000000 0.000000 -2.441811 -9.103785 -3.110224 1.717988 -8.970148 5.385372 5.734393 -9.758666 -6.931052 3.484441 -2.998911 1.281287 0.000000 0.000000 0.000000 -1.992672 -9.214520 -3.122472 -0.808563 0.094264 -0.032001 4.259497 1.585442 4.766247 0.181168 -0.204234 3.060584 0.000000 0.000000 0.000000 -1.239243 0.681663 2.080022 3.691033 0.513226 0.781006 0.000000 0.000000 0.000000 -1.698568 0.693733 2.202374 -0.913080 -23.297856 -13.504549 12.086057 -10.241594 -68.805379 -8.372401 -12.051904 -7.384050 0.000000 0.000000 0.000000 -1.198578 0.855034 2.133280 7.000101 19.435307 11.465389 15.549223 22.249628 51.592063 -4.581119 25.315934 12.380160 0.000000 0.000000 0.000000 
-5.857613 94.521461 10.087540 0.000000 0.000000 0.000000 -1.812218 -10.208559 -3.434577 -15.222777 6.346287 16.024180 22.216304 4.571741 -0.716683 0.519637 2.465173 -4.824814 0.000000 0.000000 0.000000 -2.481468 -9.371457 -3.140087 1.611432 -8.812210 5.163067 5.867972 -9.536232 -6.797781 3.525011 -2.947551 1.287641 0.000000 0.000000 0.000000 -2.048697 -9.499815 -3.147669 -0.807266 0.094922 -0.026996 4.312852 1.591175 4.761593 0.179939 -0.188303 3.086927 0.000000 0.000000 0.000000 -1.242972 0.694398 2.110651 3.706333 0.528246 0.758305 0.000000 0.000000 0.000000 -1.712723 0.706481 2.219422 -0.893610 -23.296083 -13.531659 12.132414 -10.130785 -68.735588 -8.457192 -12.139658 -7.477501 0.000000 0.000000 0.000000 -1.202788 0.868682 2.166414 6.979734 19.432038 11.497430 15.623182 22.284539 51.425225 -4.652448 25.320025 12.674064 0.000000 0.000000 0.000000 
-5.835966 94.551903 10.064732 0.000000 0.000000 0.000000 -1.892088 -10.544046 -3.477007 -15.154305 6.534213 16.083548 22.399622 4.599765 -0.718940 0.488651 2.589260 -4.617841 0.000000 0.000000 0.000000 -2.531817 -9.703578 -3.189238 1.442747 -8.621149 4.896782 6.109090 -9.230540 -6.599788 3.604264 -2.875141 1.326067 0.000000 0.000000 0.000000 -2.118772 -9.819403 -3.188692 -0.805911 0.093772 -0.022358 4.386712 1.617686 4.778108 0.158421 -0.160869 3.123288 0.000000 0.000000 0.000000 -1.253971 0.721979 2.145774 3.717397 0.546040 0.730676 0.000000 0.000000 0.000000 -1.719837 0.733509 2.248440 -0.865546 -23.267432 -13.567621 12.189600 -9.962533 -68.628102 -8.564033 -12.241432 -7.599248 0.000000 0.000000 0.000000 -1.208979 0.897230 2.209940 6.985961 19.439941 11.464589 15.783633 22.398892 51.129949 -4.744083 25.395231 13.060282 0.000000 0.000000 0.000000 
-5.816401 94.578621 10.043331 0.000000 0.000000 0.000000 -1.980221 -10.924585 -3.531853 -15.079340 6.731605 16.167439 22.600961 4.612300 -0.721685 0.396294 2.712871 -4.392646 0.000000 0.000000 0.000000 -2.592841 -10.084510 -3.250668 1.216759 -8.415409 4.609861 6.441297 -8.871783 -6.343120 3.623209 -2.818459 1.364827 0.000000 0.000000 0.000000 -2.196183 -10.171482 -3.240281 -0.804371 0.090921 -0.021234 4.493339 1.666073 4.807323 0.115079 -0.123829 3.168506 0.000000 0.000000 0.000000 -1.274975 0.764450 2.185768 3.721206 0.563598 0.701457 0.000000 0.000000 0.000000 -1.725389 0.774937 2.290251 -0.832912 -23.207231 -13.620435 12.256424 -9.756306 -68.488465 -8.689614 -12.342849 -7.746168 0.000000 0.000000 0.000000 -1.226617 0.942737 2.260923 7.025645 19.456402 11.347804 15.992319 22.565077 50.744675 -4.852188 25.573488 13.516829 0.000000 0.000000 0.000000 
